<?xml version="1.0" encoding="UTF-8"?>
<svg width="36px" height="36px" viewBox="0 0 36 36" version="1.1" xmlns="http://www.w3.org/2000/svg" xmlns:xlink="http://www.w3.org/1999/xlink">
    <title>ic_macos@2x</title>
    <g id="页面-1" stroke="none" stroke-width="1" fill="none" fill-rule="evenodd">
        <g id="H5封包app" transform="translate(-999.000000, -364.000000)">
            <g id="编组-8" transform="translate(596.000000, 280.000000)">
                <g id="编组-7" transform="translate(24.000000, 80.000000)">
                    <g id="编组-3" transform="translate(335.000000, 0.000000)">
                        <g id="ic_macos" transform="translate(44.000000, 4.000000)">
                            <rect id="矩形备份-26" x="0" y="0" width="36" height="36" rx="8"></rect>
                            <g id="编组" transform="translate(8.000000, 8.000000)" fill="#05031A">
                                <path d="M11.5575,6.96650001 L11.5575,6.793 L11.0205,6.83049999 C10.868,6.83999999 10.753,6.87249999 10.6755,6.92649999 C10.6002675,6.97837841 10.5568632,7.06518696 10.5605,7.15649999 C10.5576193,7.24682566 10.600968,7.3323922 10.6755,7.3835 C10.7505,7.44000001 10.854,7.46850001 10.9805,7.46850001 C11.063,7.46850001 11.138,7.4565 11.208,7.43049999 C11.274759,7.4075875 11.3367753,7.37268217 11.391,7.3275 C11.4979657,7.23832957 11.5591141,7.10574947 11.5575,6.96650001 L11.5575,6.96650001 Z M10.5,0 C4.64,0 0,4.64 0,10.5 C0,16.36 4.64,21 10.5,21 C16.36,21 21,16.36 21,10.5 C21,4.64 16.36,0 10.5,0 Z M12.5375,6.22299999 C12.587,6.08449999 12.6575,5.965 12.7485,5.86449999 C12.84,5.76599998 12.948,5.6885 13.0745,5.63449999 C13.201,5.58049999 13.3445,5.5545 13.5015,5.5545 C13.642,5.5545 13.771,5.576 13.8835,5.618 C13.9985,5.6605 14.0945,5.71650001 14.1765,5.78950001 C14.2585,5.8595 14.322,5.9445 14.3715,6.038 C14.418,6.134 14.4465,6.235 14.4555,6.3405 L14.0335,6.3405 C14.0226959,6.28409465 14.0038362,6.22953621 13.9775,6.17850001 C13.9495347,6.12878706 13.9129676,6.08443245 13.8695,6.0475 C13.8227097,6.00946386 13.7695566,5.98000956 13.7125,5.96049999 C13.6466736,5.93904139 13.5777242,5.92873278 13.5085,5.93 C13.3401549,5.92695711 13.1802347,6.00348904 13.077,6.13650001 C13.0255,6.20200001 12.9855,6.2815 12.957,6.37800001 C12.9278533,6.48007743 12.9137053,6.5858508 12.915,6.69200001 C12.915,6.81200002 12.929,6.9195 12.9575,7.0135 C12.9855,7.107 13.0255,7.18699999 13.0795,7.25249999 C13.131,7.318 13.1945,7.36749999 13.2695,7.4025 C13.342,7.43750001 13.424,7.454 13.5105,7.454 C13.656,7.454 13.7735,7.4215 13.8625,7.35350001 C13.954,7.2855 14.0125,7.18700001 14.0405,7.0555 L14.4625,7.0555 C14.451,7.1705 14.418,7.2755 14.3665,7.372 C14.315,7.468 14.247,7.548 14.167,7.61600001 C14.085,7.68400002 13.989,7.73550001 13.8765,7.771 C13.7583667,7.80948645 13.6347365,7.82840256 13.5105,7.82700001 C13.3535,7.82700001 13.2105,7.801 13.0815,7.7495 C12.9569519,7.69953133 12.8449582,7.62270642 12.7535,7.52449999 C12.6590418,7.42170613 12.5871649,7.30026477 12.5425,7.16799999 C12.4909395,7.01553468 12.4655807,6.85543623 12.4675,6.69449999 C12.4627779,6.53443109 12.4864781,6.374793 12.5375,6.22299999 L12.5375,6.22299999 Z M6.54,5.5855 L6.962,5.5855 L6.962,5.96049999 L6.96899999,5.96049999 C6.995,5.89699999 7.02799999,5.84049998 7.07000001,5.794 C7.11250001,5.745 7.15900002,5.7025 7.213,5.6675 C7.267,5.63249999 7.328,5.6065 7.3915,5.5875 C7.4565,5.56900001 7.52499999,5.55950001 7.59749999,5.55950001 C7.75249999,5.55950001 7.8835,5.597 7.989,5.6695 C8.097,5.7445 8.17200001,5.85 8.21649999,5.98850001 L8.22849999,5.98850001 C8.25649999,5.923 8.294,5.86200001 8.34100001,5.81050001 C8.43475609,5.70269041 8.55909566,5.62595912 8.69750001,5.59050001 C8.86886504,5.54411804 9.05031816,5.55127148 9.2175,5.61100001 C9.39131466,5.67583182 9.52775716,5.8139204 9.59050001,5.98850001 C9.62350001,6.07750002 9.64250001,6.17850001 9.64250001,6.2885 L9.64250001,7.79649999 L9.20150001,7.79649999 L9.20150001,6.3965 C9.20150001,6.25150001 9.16400002,6.13850001 9.08899999,6.059 C9.01399999,5.97900001 8.90849999,5.93899999 8.77,5.93899999 C8.70578904,5.93855986 8.64210583,5.95061722 8.58250001,5.9745 C8.52717615,5.99681525 8.47760885,6.03134143 8.43749999,6.07549999 C8.39545855,6.12032199 8.36266659,6.17299302 8.34100001,6.23050001 C8.3175,6.289 8.306,6.3545 8.306,6.427 L8.306,7.801 L7.8745,7.801 L7.8745,6.361 C7.87560397,6.30190455 7.8652464,6.24315507 7.844,6.18800001 C7.8075156,6.08643654 7.72756347,6.00648441 7.62600001,5.96999999 C7.50730611,5.92714988 7.37696863,5.92964268 7.26000001,5.977 C7.20368281,6.00093704 7.15319888,6.03675334 7.11200001,6.082 C7.06892944,6.12785689 7.03619346,6.18241686 7.016,6.24200001 C6.995,6.30300001 6.95750001,6.36850001 6.95749999,6.44100001 L6.95749999,7.799 L6.54,7.799 L6.54,5.585 L6.54,5.5855 Z M7.499,16.1815 C5.5625,16.1815 4.35000001,14.8355 4.35000001,12.69 C4.35000001,10.545 5.56250002,9.19399999 7.499,9.19399999 C9.43600001,9.19399999 10.644,10.5445 10.644,12.69 C10.644,14.8355 9.43399999,16.1815 7.499,16.1815 Z M11.082,7.79400001 C11.012,7.813 10.937,7.8225 10.864,7.8225 C10.754,7.8225 10.653,7.80600001 10.5615,7.77549999 C10.4741616,7.74752433 10.3934965,7.70191617 10.3245,7.6415 C10.1869865,7.52202765 10.1096771,7.3476236 10.1135,7.16550001 C10.1135,6.97100002 10.1865,6.81850001 10.3315,6.7105 C10.477,6.60049999 10.686,6.53749999 10.96,6.5205 L11.558,6.48549999 L11.558,6.31450001 C11.558,6.18800001 11.518,6.0895 11.436,6.02399999 C11.354,5.95799999 11.241,5.923 11.091,5.923 C11.0325,5.923 10.9765,5.93 10.925,5.944 C10.876652,5.95799645 10.8307716,5.97941853 10.789,6.0075 C10.7101034,6.06133153 10.6553755,6.14387188 10.6365,6.2375 L10.2215,6.2375 C10.2226746,6.1420571 10.2475904,6.04840788 10.294,5.965 C10.341,5.881 10.402,5.81000001 10.479,5.74949999 C10.557,5.6885 10.6505,5.64149999 10.756,5.6065 C10.8615,5.5735 10.979,5.555 11.103,5.555 C11.2269275,5.55316264 11.3503916,5.57053532 11.469,5.6065 C11.579,5.64150001 11.673,5.6885 11.7505,5.7515 C11.8275,5.815 11.8865,5.89 11.9285,5.97950001 C11.9705,6.06850002 11.992,6.16950001 11.992,6.277 L11.992,7.79649999 L11.5695,7.79649999 L11.5695,7.42850001 L11.558,7.42850001 C11.5275,7.487 11.488,7.54350001 11.438,7.59 C11.389519,7.63801511 11.3352719,7.67983409 11.2765,7.71449999 C11.2205,7.7495 11.1545,7.77549999 11.082,7.79450001 L11.082,7.79400001 Z M13.8675,16.1815 C12.3905,16.1815 11.387,15.4075 11.319,14.193 L12.28,14.193 C12.355,14.887 13.026,15.3465 13.945,15.3465 C14.8265,15.3465 15.46,14.887 15.46,14.2585 C15.46,13.7145 15.075,13.3865 14.184,13.1615 L13.3165,12.9455 C12.069,12.636 11.5015,12.0685 11.5015,11.1355 C11.5015,9.98649998 12.5055,9.189 13.9335,9.189 C15.331,9.189 16.3035,9.99100001 16.3415,11.145 L15.3895,11.145 C15.324,10.4505 14.7565,10.024 13.912,10.024 C13.073,10.024 12.4915,10.4555 12.4915,11.079 C12.4915,11.5715 12.857,11.8625 13.748,12.0875 L14.4795,12.2705 C15.8725,12.608 16.4445,13.1565 16.4445,14.1415 C16.4445,15.3985 15.4525,16.1815 13.8675,16.1815 L13.8675,16.1815 Z M7.4985,10.0545 C6.1715,10.0545 5.3435,11.072 5.3435,12.6875 C5.3435,14.301 6.1735,15.316 7.4985,15.316 C8.821,15.316 9.65350001,14.2985 9.65350001,12.6875 C9.65350001,11.0725 8.81850002,10.0545 7.4985,10.0545 Z" id="形状"></path>
                            </g>
                        </g>
                    </g>
                </g>
            </g>
        </g>
    </g>
</svg>