<?xml version="1.0" encoding="UTF-8"?>
<svg width="36px" height="36px" viewBox="0 0 36 36" version="1.1" xmlns="http://www.w3.org/2000/svg" xmlns:xlink="http://www.w3.org/1999/xlink">
    <title>ic_Apple@2x</title>
    <g id="页面-1" stroke="none" stroke-width="1" fill="none" fill-rule="evenodd">
        <g id="H5封包app" transform="translate(-808.000000, -364.000000)">
            <g id="编组-8" transform="translate(596.000000, 280.000000)">
                <g id="编组-7" transform="translate(24.000000, 80.000000)">
                    <g id="编组-4" transform="translate(144.000000, 0.000000)">
                        <g id="ic_Apple" transform="translate(44.000000, 4.000000)">
                            <rect id="矩形备份-5" x="0" y="0" width="36" height="36" rx="8"></rect>
                            <path d="M25.0606796,19.7827757 C25.6245955,20.6035581 26.2710356,21.1342363 27,21.3748105 C26.683657,22.3795613 26.1816343,23.4267664 25.493932,24.5164258 C24.4348706,26.1579905 23.3895631,26.9787729 22.3580097,26.9787729 C21.9728964,26.9787729 21.4021036,26.8443344 20.6456311,26.5754574 C19.9441748,26.3065804 19.3321197,26.1721419 18.809466,26.1721419 C18.2868123,26.1721419 17.7091424,26.3136561 17.0764563,26.5966845 C16.4162621,26.8655615 15.8729773,27 15.4466019,27 C14.2087379,27 12.9915049,25.9174164 11.7949029,23.7522491 C10.598301,21.6153846 10,19.5138987 10,17.4477914 C10,15.5373496 10.4538835,13.9736177 11.3616505,12.7565956 C12.2969256,11.5395734 13.4522654,10.9310624 14.8276699,10.9310624 C15.1302589,10.9310624 15.467233,10.9699788 15.8385922,11.0478116 C16.2099515,11.1256444 16.5950647,11.2706965 16.993932,11.4829678 C17.4203074,11.7235419 17.7710356,11.8898211 18.0461165,11.9818053 C18.3211974,12.0737895 18.5343851,12.1197817 18.6856796,12.1197817 C18.8644822,12.1197817 19.1395631,12.0773274 19.5109223,11.9924189 C19.8822816,11.9075104 20.2536408,11.7518447 20.625,11.525422 C21.0238673,11.2989993 21.3677184,11.1291823 21.6565534,11.0159709 C21.9453883,10.9027595 22.2411003,10.8461538 22.5436893,10.8461538 C23.5064725,10.8461538 24.3729773,11.1150308 25.1432039,11.6527848 C25.5558252,11.9358132 25.9753236,12.3532801 26.401699,12.9051855 C25.7690129,13.4712423 25.3082524,13.966542 25.0194175,14.3910846 C24.4830097,15.1835641 24.2148058,16.0468008 24.2148058,16.9807945 C24.2148058,18.0138482 24.4967638,18.9478419 25.0606796,19.7827757 L25.0606796,19.7827757 Z M20.6635243,10.4052885 C20.1841109,10.9235577 19.74579,11.2612179 19.3485618,11.4182692 C19.2115865,11.4653846 19.036943,11.5085737 18.8246314,11.5478365 C18.6123197,11.5870994 18.3691886,11.6224359 18.0952381,11.6538462 C18.1089356,10.2717949 18.4239787,9.07820513 19.0403674,8.07307692 C19.6567561,7.06794872 20.6703731,6.37692308 22.0812183,6 C22.1086133,6.15705128 22.1291596,6.26698718 22.1428571,6.32980769 L22.1428571,6.58894231 C22.1428571,7.15432692 22.0264282,7.79038462 21.7935702,8.49711538 C21.5470147,9.18814103 21.1703328,9.82419872 20.6635243,10.4052885 L20.6635243,10.4052885 Z" id="形状" fill="#05031A"></path>
                        </g>
                    </g>
                </g>
            </g>
        </g>
    </g>
</svg>