<?xml version="1.0" encoding="UTF-8"?>
<svg width="36px" height="36px" viewBox="0 0 36 36" version="1.1" xmlns="http://www.w3.org/2000/svg" xmlns:xlink="http://www.w3.org/1999/xlink">
    <title>ic_Android@2x</title>
    <g id="页面-1" stroke="none" stroke-width="1" fill="none" fill-rule="evenodd">
        <g id="H5封包app" transform="translate(-664.000000, -364.000000)">
            <g id="编组-8" transform="translate(596.000000, 280.000000)">
                <g id="编组-7" transform="translate(24.000000, 80.000000)">
                    <g id="ic_Android" transform="translate(44.000000, 4.000000)">
                        <rect id="矩形" x="0" y="0" width="36" height="36" rx="8"></rect>
                        <g id="编组" transform="translate(8.000000, 8.000000)" fill="#05031A">
                            <path d="M17.826087,7.36957663 L17.826087,12.2213457 C17.826087,12.9055051 18.3018334,13.4693878 18.9132345,13.4693878 C19.50744,13.4693878 20,12.9055051 20,12.2208884 L20,7.37003395 C19.9831865,6.68587459 19.50744,6.12244898 18.9132345,6.12244898 C18.318647,6.12199192 17.826087,6.68541727 17.826087,7.36957663 Z M0,7.36911929 L0,12.2213457 C0,12.9055051 0.475364355,13.4693878 1.08676547,13.4693878 C1.69816657,13.4693878 2.17391304,12.9055051 2.17391304,12.2208884 L2.17391304,7.37003395 C2.17391304,6.68587459 1.69816655,6.12244898 1.08676547,6.12244898 C0.492942149,6.12199192 0,6.68541727 0,7.36911929 Z M3.47826087,14.8713398 C3.47826087,15.3979043 3.85454719,15.7763975 4.47368421,15.7763975 L6.13272311,15.7763975 L6.13272311,18.7932564 C6.13272311,19.482301 6.66363652,20 7.45995423,20 C8.23437322,20 8.78718535,19.482301 8.78718535,18.7932564 L8.78718535,15.7763975 L10.778032,15.7763975 L10.778032,18.7932564 C10.778032,19.482301 11.3089454,20 12.1052632,20 C12.8786867,20 13.4324943,19.482301 13.4324943,18.7932564 L13.4324943,15.7763975 L15.0915332,15.7763975 C15.7111679,15.7763975 16.0869565,15.4181568 16.0869565,14.8713398 L16.0869565,6.12244898 L3.47826087,6.12244898 L3.47826087,14.8713398 Z M13.9152097,0.304192709 C13.9590833,0.200587171 13.9590833,0.076260513 13.848402,0.0348183139 C13.7596575,-0.0273450049 13.6270394,0.0140972144 13.5602317,0.0969816327 L12.363677,1.65153569 C11.5250067,1.36610294 10.6406492,1.21891368 9.74920488,1.21639242 C8.818385,1.21639242 7.93243593,1.36144018 7.13473275,1.65153569 L5.93817801,0.0974525585 C5.87137037,-0.00615297954 5.73875221,-0.0273450251 5.65000774,0.0348183139 C5.56024955,0.0982924345 5.54035104,0.217749809 5.60513693,0.304192709 L6.77975484,1.79705437 C4.94104905,2.56373538 3.63381299,4.0146839 3.47826087,5.71428571 L16.0869565,5.71428571 C15.8875307,4.01421297 14.6017329,2.5637354 12.7405918,1.79658345 L13.9152097,0.304192709 Z M7.17414976,4.48979592 C6.79539178,4.48979592 6.52173913,4.22448979 6.52173913,3.87755102 C6.52173913,3.53014842 6.81622348,3.26530612 7.17414976,3.26530612 C7.55290775,3.26530612 7.82608696,3.53014842 7.82608696,3.87755102 C7.82608696,4.22448979 7.53160261,4.48979592 7.17414976,4.48979592 Z M12.3913043,4.48979592 C12.0126838,4.48979592 11.7391304,4.22448979 11.7391304,3.87755102 C11.7391304,3.53014842 12.0339812,3.26530612 12.3913043,3.26530612 C12.7699249,3.26530612 13.0434783,3.53014842 13.0434783,3.87755102 C13.0434783,4.22448979 12.7491008,4.48979592 12.3913043,4.48979592 Z" id="形状"></path>
                        </g>
                    </g>
                </g>
            </g>
        </g>
    </g>
</svg>